<svg xmlns="http://www.w3.org/2000/svg" height="40" viewBox="0 96 960 960" width="40"><path d="M479.941 820q-8.824 0-15.049-6.284t-6.225-15.108q0-8.824 6.284-15.383 6.284-6.558 15.108-6.558 8.824 0 15.049 6.49t6.225 15.604q0 8.839-6.284 15.039-6.284 6.2-15.108 6.2Zm0-222.667q-8.824 0-15.049-6.284t-6.225-15.108q0-8.824 6.284-15.049t15.108-6.225q8.824 0 15.049 6.284t6.225 15.108q0 8.824-6.284 15.049t-15.108 6.225Zm0-222q-8.824 0-15.049-6.49t-6.225-15.604q0-8.839 6.284-15.039 6.284-6.2 15.108-6.2 8.824 0 15.049 6.284t6.225 15.108q0 8.824-6.284 15.383-6.284 6.558-15.108 6.558Z"/></svg>